<?xml version="1.0" encoding="UTF-8" standalone="no"?>
<!-- Created with Inkscape (http://www.inkscape.org/) -->

<svg
   xmlns:dc="http://purl.org/dc/elements/1.1/"
   xmlns:cc="http://creativecommons.org/ns#"
   xmlns:rdf="http://www.w3.org/1999/02/22-rdf-syntax-ns#"
   xmlns:svg="http://www.w3.org/2000/svg"
   xmlns="http://www.w3.org/2000/svg"
   xmlns:sodipodi="http://sodipodi.sourceforge.net/DTD/sodipodi-0.dtd"
   xmlns:inkscape="http://www.inkscape.org/namespaces/inkscape"
   width="744.09448819"
   height="1052.3622047"
   id="svg2"
   version="1.1"
   inkscape:version="0.48.3.1 r9886"
   sodipodi:docname="icon.svg">
  <defs
     id="defs4" />
  <sodipodi:namedview
     id="base"
     pagecolor="#ffffff"
     bordercolor="#666666"
     borderopacity="1.0"
     inkscape:pageopacity="0.0"
     inkscape:pageshadow="2"
     inkscape:zoom="2.8"
     inkscape:cx="-150.22015"
     inkscape:cy="807.67984"
     inkscape:document-units="px"
     inkscape:current-layer="g3776"
     showgrid="false"
     inkscape:window-width="1855"
     inkscape:window-height="1056"
     inkscape:window-x="65"
     inkscape:window-y="24"
     inkscape:window-maximized="1" />
  <metadata
     id="metadata7">
    <rdf:RDF>
      <cc:Work
         rdf:about="">
        <dc:format>image/svg+xml</dc:format>
        <dc:type
           rdf:resource="http://purl.org/dc/dcmitype/StillImage" />
        <dc:title></dc:title>
      </cc:Work>
    </rdf:RDF>
  </metadata>
  <g
     inkscape:label="Layer 1"
     inkscape:groupmode="layer"
     id="layer1">
    <g
       id="g3776"
       inkscape:export-filename="/home/rwainman/public_html/moodle25/question/type/mathexpression/pix/icon.png"
       inkscape:export-xdpi="13.559603"
       inkscape:export-ydpi="13.559603">
      <path
         inkscape:export-ydpi="13.559603"
         inkscape:export-xdpi="13.559603"
         inkscape:export-filename="/home/rwainman/public_html/moodle25/question/type/mathexpression/pix/icon.png"
         inkscape:connector-curvature="0"
         id="path2985"
         d="m -246.5747,224.21563 8.93899,-0.98494 18.66681,25.42318 -7.46854,-67.78211 102.15685,-11.2561"
         style="fill:none;stroke:#000000;stroke-width:15.29646015;stroke-linecap:butt;stroke-linejoin:miter;stroke-miterlimit:4;stroke-opacity:1;stroke-dasharray:none" />
      <g
         inkscape:export-ydpi="13.559603"
         inkscape:export-xdpi="13.559603"
         inkscape:export-filename="/home/rwainman/public_html/moodle25/question/type/mathexpression/pix/icon.png"
         id="text3759"
         style="font-size:97.49369812px;font-style:normal;font-weight:normal;line-height:125%;letter-spacing:0px;word-spacing:0px;fill:#000000;fill-opacity:1;stroke:none;font-family:Sans"
         transform="matrix(0.80352776,-0.09679251,0.09679251,0.80352776,-287.78885,-127.45876)">
        <path
           inkscape:connector-curvature="0"
           id="path3785"
           style="stroke:#000000;stroke-width:6.9000001;stroke-miterlimit:4;stroke-opacity:1;stroke-dasharray:none"
           d="m 126.91797,428.09943 -19.27976,25.94437 20.27945,27.37249 -10.33015,0 -15.51901,-20.94591 -15.519023,20.94591 -10.330143,0 20.70789,-27.89614 -18.946529,-25.42072 10.330143,0 14.138492,18.99413 14.13849,-18.99413 10.33015,0" />
      </g>
      <g
         transform="matrix(0.80352776,-0.09679251,0.09679251,0.80352776,-206.19637,-142.82026)"
         style="font-size:97.49369812px;font-style:normal;font-weight:normal;line-height:125%;letter-spacing:0px;word-spacing:0px;fill:#000000;fill-opacity:1;stroke:none;font-family:Sans"
         id="g2988"
         inkscape:export-filename="/home/rwainman/public_html/moodle25/question/type/mathexpression/pix/icon.png"
         inkscape:export-xdpi="13.559603"
         inkscape:export-ydpi="13.559603">
        <g
           transform="matrix(0.99999614,0.00277902,-0.00277902,0.99999614,3.3400381,-7.0647333)"
           style="font-size:134.28291321px;line-height:125%;fill:#000000;stroke:#000000;stroke-width:3.84141803;stroke-miterlimit:4;stroke-opacity:1;font-family:Sans"
           id="text2992">
          <path
             d="m 90.251378,473.82904 -12.523455,0 0,-10.09745 c -2.7e-5,-4.41486 0.611939,-8.04294 1.835899,-10.88426 1.223903,-2.84122 3.802902,-6.14147 7.737003,-9.90074 l 5.901105,-5.83554 c 2.491534,-2.31666 4.283719,-4.50226 5.376562,-6.55678 1.136461,-2.05439 1.704718,-4.15256 1.704768,-6.29451 -5e-5,-3.89028 -1.442544,-7.03753 -4.327481,-9.44177 -2.841314,-2.40407 -6.622388,-3.60614 -11.343234,-3.60623 -3.453269,9e-5 -7.14692,0.76505 -11.080964,2.29487 -3.890375,1.53 -7.955577,3.75931 -12.195616,6.68792 l 0,-12.32675 c 4.108904,-2.49148 8.261529,-4.34924 12.457888,-5.57327 4.240026,-1.22383 8.611211,-1.8358 13.113566,-1.8359 8.042943,10e-5 14.490441,2.12013 19.342511,6.36008 4.89567,4.24015 7.34353,9.83526 7.34359,16.78537 -6e-5,3.32218 -0.78687,6.49128 -2.36044,9.50733 -1.57368,2.97248 -4.32753,6.33829 -8.26154,10.09745 l -5.769972,5.63883 c -2.054502,2.05451 -3.518849,3.67185 -4.393045,4.85202 -0.830566,1.13656 -1.420676,2.25121 -1.770331,3.34396 -0.262311,0.91799 -0.459014,2.03264 -0.590111,3.34396 -0.131174,1.3114 -0.196742,3.10358 -0.196703,5.37656 l 0,8.06485"
             id="path3793"
             inkscape:connector-curvature="0"
             sodipodi:nodetypes="ccssccccccccccccccccccccc" />
        </g>
        <g
           transform="matrix(0.99999614,0.00277902,-0.00277902,0.99999614,-156.89246,-19.965905)"
           style="font-size:134.28291321px;line-height:125%;fill:#000000;stroke:#000000;stroke-width:3.84141803;stroke-miterlimit:4;stroke-opacity:1;font-family:Sans"
           id="text3788">
          <path
             d="m 237.73634,502.33735 13.31027,0 0,16.65423 -13.31027,0 0,-16.65423"
             id="path3796"
             inkscape:connector-curvature="0"
             sodipodi:nodetypes="ccccc" />
        </g>
      </g>
    </g>
    <rect
       style="opacity:0;fill:#ffffff;stroke-width:9.89999962;stroke-miterlimit:4;stroke-dasharray:none"
       id="rect3763"
       width="165.66502"
       height="165.66502"
       x="48.507629"
       y="338.18433"
       inkscape:export-filename="/home/rwainman/Pictures/icon.png"
       inkscape:export-xdpi="16.299999"
       inkscape:export-ydpi="16.299999" />
    <rect
       style="opacity:0;fill:#000000;fill-opacity:1;stroke:none"
       id="rect3766"
       width="201.16112"
       height="192.48357"
       x="-261.12445"
       y="117.75321"
       inkscape:export-filename="/home/rwainman/public_html/moodle25/question/type/mathexpression/pix/icon.png"
       inkscape:export-xdpi="13.559603"
       inkscape:export-ydpi="13.559603" />
    <text
       xml:space="preserve"
       style="font-size:40px;font-style:normal;font-weight:normal;line-height:125%;letter-spacing:0px;word-spacing:0px;fill:#000000;fill-opacity:1;stroke:none;font-family:Sans"
       x="143.94675"
       y="435.15897"
       id="text3755"
       sodipodi:linespacing="125%"><tspan
         sodipodi:role="line"
         id="tspan3757"
         x="143.94675"
         y="435.15897"
         style="font-style:normal;font-variant:normal;font-weight:normal;font-stretch:normal;font-family:Monospace;-inkscape-font-specification:Monospace" /></text>
  </g>
</svg>
